<svg xmlns="http://www.w3.org/2000/svg" viewBox="0 0 430 91" enable-background="new 0 0 430 91">
  <path d="M71.77 37.85h-3.03c-.67 0-1.28.26-1.74.69-1.66-3.69-3.85-9.41-5.09-11.66-.55-1-1.67-2.21-2.92-2.2H30.97c-1.25-.01-2.37 1.2-2.92 2.2-1.24 2.25-3.43 7.96-5.09 11.66-.46-.43-1.07-.69-1.74-.69h-3.03c-1.42 0-2.57 1.15-2.57 2.57s1.15 2.57 2.57 2.57h2.69l.01 9.75c0 3.17 1.56 5.74 3.48 5.77v5.42c0 1.31 1.06 2.37 2.37 2.37h2.2c1.31 0 2.37-1.06 2.37-2.37V58.5h27.32v5.44c0 1.31 1.06 2.37 2.37 2.37h2.2c1.31 0 2.37-1.06 2.37-2.37v-5.42c1.92-.02 3.48-2.6 3.48-5.77l.03-9.75h2.69c1.42 0 2.57-1.15 2.57-2.57s-1.15-2.58-2.57-2.58zM32.03 52.62c-2.03 0-3.68-1.64-3.68-3.67 0-2.03 1.65-3.67 3.68-3.67 2.03 0 3.67 1.64 3.67 3.67 0 2.03-1.64 3.67-3.67 3.67zm25.9 0c-2.03 0-3.67-1.64-3.67-3.67 0-2.03 1.65-3.67 3.67-3.67 2.03 0 3.68 1.64 3.68 3.67 0 2.03-1.65 3.67-3.68 3.67zM26.07 40.79c1.6-3.41 3.04-8.28 4.89-11.64.13-.23.52-.77.8-.89H58.2c.28.12.67.66.8.89 1.85 3.35 3.29 8.22 4.89 11.64H26.07zM121.88 16.48h5.57l24.95 56.11h-8.71l-7.18-16.54h-23.14l-6.72 16.54h-8.6l23.83-56.11zM116.32 49h17.24l-8.9-20.2h.03L116.32 49zM165.35 58.82c0 2.78.61 4.91 1.83 6.36 1.22 1.46 2.98 2.19 5.29 2.19 3 0 5.8-1.56 8.4-4.69l.72-.87V36h7.24v36.58h-7.24v-5.25c-3.42 4.06-6.92 6.08-10.5 6.08-4.25 0-7.47-1.29-9.67-3.86s-3.3-6.34-3.3-11.29V36h7.24v22.82zM221.79 71.19c-2.02 1.48-4.79 2.23-8.32 2.23-3.93 0-6.99-1.07-9.19-3.22-2.2-2.15-3.3-5.14-3.3-8.99V42.68h-6.21v-.99l13.39-13h.06V36h11.14v6.68h-11.14v17.54c0 2.09.5 3.67 1.51 4.73 1.01 1.06 2.52 1.59 4.54 1.59 3.26-.03 5.77-.77 7.52-2.23v6.88zM231.14 68.07c-3.65-3.57-5.47-8.15-5.47-13.74 0-5.62 1.82-10.22 5.47-13.8 3.65-3.58 8.34-5.37 14.07-5.37s10.42 1.79 14.08 5.37 5.49 8.18 5.49 13.8c0 5.59-1.83 10.17-5.49 13.74-3.66 3.56-8.36 5.35-14.08 5.35-5.73 0-10.42-1.79-14.07-5.35m22.82-4.53c2.25-2.37 3.38-5.44 3.38-9.21 0-3.79-1.13-6.88-3.38-9.26-2.25-2.39-5.17-3.58-8.75-3.58s-6.49 1.19-8.73 3.58c-2.24 2.38-3.36 5.47-3.36 9.26 0 3.76 1.12 6.83 3.36 9.21 2.24 2.37 5.15 3.56 8.73 3.56 3.58-.01 6.5-1.19 8.75-3.56M296.33 36h3.9v10.02c1.54-2.78 3.3-5.14 5.29-7.08 2.65-2.52 5.31-3.77 7.96-3.77 1.17 0 2.39.36 3.68 1.07 1.29.72 2.76 1.86 4.44 3.42l-1.98 3.45c-1.78-1.51-3.26-2.58-4.44-3.21-1.18-.63-2.29-.95-3.32-.95-1.67 0-3.46.89-5.37 2.67-1.91 1.78-3.99 4.49-6.25 8.15v22.82h-3.9V36zM332.52 73.42c-2.71 0-4.99-.88-6.84-2.64-1.86-1.76-2.79-3.93-2.79-6.5 0-4.14 2.03-7.46 6.09-9.98 3.9-2.44 8.95-3.7 15.16-3.78V45.9c0-2.44-.66-4.23-1.99-5.37-1.33-1.14-3.41-1.71-6.25-1.71-2.02 0-3.92.37-5.71 1.11-1.79.74-3.56 1.88-5.31 3.42v-4.18c1.94-1.4 3.86-2.43 5.77-3.06 1.91-.64 4.01-.95 6.29-.95 3.42 0 6.13.84 8.12 2.52 1.99 1.68 2.98 3.96 2.98 6.82v23.3c0 .61.1 1.05.3 1.33.2.28.51.42.93.42.32 0 .96-.3 1.93-.91.97-.61 1.97-1.34 3-2.19l.04 3.02c-1.19 1.04-2.53 1.93-4.02 2.69-1.49.75-2.67 1.13-3.54 1.13-.82 0-1.45-.38-1.89-1.13-.44-.76-.66-1.84-.66-3.24v-.08c-1.14.96-2.48 1.83-4.02 2.63-2.59 1.3-5.13 1.95-7.59 1.95m11.62-19.8c-4.7.1-8.75 1.12-12.18 3.06-3.55 2.04-5.33 4.51-5.33 7.4 0 1.67.7 3.07 2.11 4.19 1.4 1.13 3.14 1.69 5.21 1.69 2.04 0 3.99-.43 5.85-1.29 1.86-.86 3.3-2.01 4.34-3.44V53.62zM387.09 71.47c-1.91.71-3.59 1.22-5.05 1.51-1.46.29-3.06.44-4.82.44-5.36 0-9.74-1.78-13.15-5.35-3.41-3.57-5.11-8.15-5.11-13.74 0-5.62 1.7-10.22 5.11-13.8s7.79-5.37 13.15-5.37c1.51 0 2.94.14 4.28.44 1.34.29 2.92.79 4.76 1.51v4.02c-1.96-.76-3.65-1.28-5.05-1.58-1.41-.29-2.92-.45-4.54-.45-3.79 0-7.02 1.49-9.69 4.45-2.67 2.97-4 6.56-4 10.78 0 4.69 1.3 8.39 3.9 11.09 2.6 2.7 6.17 4.06 10.7 4.06 1.64 0 3.17-.15 4.58-.45 1.4-.3 3.05-.83 4.93-1.58v4.02zM399.04 72.58h-3.9V17.03h3.9v55.55zm.98-18.29h.04L420.18 36h5.24l-19.77 18.13 22.4 18.45h-5.88l-22.15-18.29z"/>
  <path d="M87.01 45.5c0-23.2-18.82-42-42.03-42S2.95 22.3 2.95 45.5s18.82 42 42.03 42h36.14c3.24 0 5.89-2.65 5.89-5.88V45.5zM44.98 81.62c-19.96 0-36.15-16.17-36.15-36.12 0-19.95 16.18-36.12 36.15-36.12 19.96 0 36.14 16.17 36.14 36.12 0 19.95-16.18 36.12-36.14 36.12M255.78 17.03v3.58h20.85v51.97h4.3V20.61h20.85v-3.58"/>
</svg>